<?xml version="1.0" encoding="UTF-8" standalone="no"?>
<svg
   xmlns:dc="http://purl.org/dc/elements/1.1/"
   xmlns:cc="http://creativecommons.org/ns#"
   xmlns:rdf="http://www.w3.org/1999/02/22-rdf-syntax-ns#"
   xmlns:svg="http://www.w3.org/2000/svg"
   xmlns="http://www.w3.org/2000/svg"
   xmlns:sodipodi="http://sodipodi.sourceforge.net/DTD/sodipodi-0.dtd"
   xmlns:inkscape="http://www.inkscape.org/namespaces/inkscape"
   version="1.1"
   id="svg2"
   width="345.60001"
   height="44.799999"
   viewBox="0 0 345.60001 44.799999"
   sodipodi:docname="the_end.svg"
   inkscape:version="1.0.2-2 (e86c870879, 2021-01-15)">
  <metadata
     id="metadata8">
    <rdf:RDF>
      <cc:Work
         rdf:about="">
        <dc:format>image/svg+xml</dc:format>
        <dc:type
           rdf:resource="http://purl.org/dc/dcmitype/StillImage" />
        <dc:title></dc:title>
      </cc:Work>
    </rdf:RDF>
  </metadata>
  <defs
     id="defs6" />
  <sodipodi:namedview
     pagecolor="#ffffff"
     bordercolor="#666666"
     borderopacity="1"
     objecttolerance="10"
     gridtolerance="10"
     guidetolerance="10"
     inkscape:pageopacity="0"
     inkscape:pageshadow="2"
     inkscape:window-width="2560"
     inkscape:window-height="1361"
     id="namedview4"
     showgrid="false"
     inkscape:zoom="45.506084"
     inkscape:cx="345.25189"
     inkscape:cy="38.697734"
     inkscape:window-x="1591"
     inkscape:window-y="-9"
     inkscape:window-maximized="1"
     inkscape:current-layer="g172" />
  <g
     inkscape:groupmode="layer"
     inkscape:label="Image"
     id="g10">
    <g
       id="g172">
      <path
         style="fill:#000000;stroke-width:0.8"
         d="M 13.577202,25.631907 V 6.4319095 H 7.1772019 0.77720171 v -3.2 -3.19999999 h 19.20000129 19.2 v 3.19999999 3.2 h -6.4 -6.4 v 19.1999975 19.2 h -6.4 -6.400001 z m 32.000001,-3.2 V 0.03190961 h 6.400001 6.4 V 6.4319095 12.831907 h 12.8 12.8 v 3.2 3.2 h 3.200001 3.2 v 12.8 12.8 h -6.400001 -6.4 v -12.8 -12.8 h -9.6 -9.6 v 12.8 12.8 h -6.4 -6.400001 z m 57.599997,19.2 v -3.2 h -3.199996 -3.199999 v -9.6 -9.6 h 3.199999 3.199996 v -3.2 -3.2 h 16 16 v 3.2 3.2 h 3.2 3.2 v 6.4 6.4 h -16 -16 v 3.2 3.2 h 12.8 12.8 v 3.2 3.2 h -16 -16 z m 25.6,-19.2 v -3.2 h -9.6 -9.6 v 3.2 3.2 h 9.6 9.6 z m 70.40001,0 V 0.03190961 h 22.4 22.4 v 3.19999989 3.2 h -16 -16 v 6.3999975 6.4 h 12.8 12.8 v 3.2 3.2 h -12.8 -12.8 v 6.4 6.4 h 16 16 v 3.2 3.2 h -22.4 -22.4 z m 51.2,6.4 v -16 h 19.2 19.2 v 3.2 3.2 h 3.2 3.2 v 12.8 12.8 h -6.4 -6.4 v -12.8 -12.8 h -9.6 -9.6 v 12.8 12.8 h -6.4 -6.4 z m 57.6,12.8 v -3.2 h -3.2 -3.2 v -9.6 -9.6 h 3.2 3.2 v -3.2 -3.2 h 12.8 12.8 V 6.4319095 0.03190961 h 6 6 v 22.39999739 22.4 h -18.8 -18.8 z m 25.6,-12.8 v -9.6 h -9.6 -9.6 v 9.6 9.6 h 9.6 9.6 z"
         id="path174" />
    </g>
  </g>
</svg>
